<svg xmlns="http://www.w3.org/2000/svg" viewBox="0 0 48 48" width="22" height="22">
  <path fill="#FFC107" d="M43.6 20.5H42V20H24v8h11.3c-1.6 4.7-6 8-11.3 8-6.9 0-12.5-5.6-12.5-12.5S17.1 11 24 11c3.2 0 6.2 1.2 8.4 3.3l5.7-5.7C34.9 4.3 29.7 2 24 2 12.5 2 3 11.5 3 23s9.5 21 21 21 21-9.5 21-21c0-1.2-.1-2.3-.4-3.5z"></path>
  <path fill="#FF3D00" d="M6.3 14.7l6.6 4.8C14.8 14.7 19 11 24 11c3.2 0 6.2 1.2 8.4 3.3l5.7-5.7C34.9 4.3 29.7 2 24 2 15.2 2 7.6 7 4.1 14.1l2.2.6z"></path>
  <path fill="#4CAF50" d="M24 44c5.3 0 10.2-2 13.9-5.3l-6.4-5.3C29.8 35.9 27 37 24 37c-5.2 0-9.6-3.3-11.3-8l-6.6 5.1C8.1 40.9 15.5 44 24 44z"></path>
  <path fill="#1976D2" d="M43.6 20.5H42V20H24v8h11.3c-.7 2.1-2.1 4-4 5.3l6.4 5.3C40.2 36.2 43.6 30 43.6 20.5z"></path>
</svg>
